<svg id="eypgYMc9kiH1" xmlns="http://www.w3.org/2000/svg" xmlns:xlink="http://www.w3.org/1999/xlink" viewBox="0 0 377.16 457.96" shape-rendering="geometricPrecision" text-rendering="geometricPrecision"><style><![CDATA[#eypgYMc9kiH2_tr {animation: eypgYMc9kiH2_tr__tr 1500ms linear infinite normal forwards}@keyframes eypgYMc9kiH2_tr__tr { 0% {transform: translate(135.85px,315.93px) rotate(0deg);animation-timing-function: cubic-bezier(0.42,0,0.58,1)} 33.333333% {transform: translate(135.85px,315.93px) rotate(15deg)} 50% {transform: translate(135.85px,315.93px) rotate(15deg)} 83.333333% {transform: translate(135.85px,315.93px) rotate(0deg)} 100% {transform: translate(135.85px,315.93px) rotate(0deg)}} #eypgYMc9kiH73_to {animation: eypgYMc9kiH73_to__to 1500ms linear infinite normal forwards}@keyframes eypgYMc9kiH73_to__to { 0% {transform: translate(175.737144px,216.994171px)} 23.333333% {transform: translate(176.919846px,213.609148px)} 60% {transform: translate(176.919846px,213.609148px)} 83.333333% {transform: translate(175.737144px,216.994171px)} 100% {transform: translate(175.737144px,216.994171px)}} #eypgYMc9kiH88_ts {animation: eypgYMc9kiH88_ts__ts 1500ms linear infinite normal forwards}@keyframes eypgYMc9kiH88_ts__ts { 0% {transform: translate(125.59px,17.36px) scale(1,1)} 16.666667% {transform: translate(125.59px,17.36px) scale(1,1)} 100% {transform: translate(125.59px,17.36px) scale(1,1)}}]]></style><g id="eypgYMc9kiH2_tr" transform="translate(135.85,315.93) rotate(0)"><g id="eypgYMc9kiH2" transform="translate(-135.849991,-315.929997)"><path id="eypgYMc9kiH3" d="M145.47,230.48C141.55,229.23,126.04,237.18,114.89,249.26C103.74,261.34,99.03,270.26,100.69,271.32C103.38,273.03,128.07,275.06,139.05,259.95C150.03,244.84,145.47,230.48,145.47,230.48Z" transform="matrix(1 0 0 1 -69.76 -41.14)" fill="rgb(0,24,48)" stroke="none" stroke-width="1"/><path id="eypgYMc9kiH4" d="M139.72,252.26L128.94,225.33C128.94,225.33,143.34,213.87,144.16,198.33C144.98,182.79,122.93,176.88,119.16,189.22C117.16,195.98,130.67,190.46,129.85,199.49C129.03,208.52,122.44,206.23,122.44,206.23C122.44,206.23,108.44,196.23,108.44,183.47C108.44,170.71,94.06,171.39,92.83,177.02C92.086168,180.413046,92.086168,183.926954,92.83,187.32C93.573832,190.713046,85.83,182.94,82.15,187.32C78.47,191.7,82.15,203.49,82.15,203.49C82.15,203.49,75.57,196.8,73.52,203.49C71.47,210.18,79.68,223.71,79.68,223.71C79.68,223.71,74.75,227.51,77.22,234.45C79.69,241.39,90.77,249.76,95.7,237.57C95.7,237.57,114.19,265.86,118.3,273.14C122.41,280.42,147,267.43,139.72,252.26Z" transform="matrix(1 0 0 1 -69.76 -41.14)" fill="rgb(255,178,115)" stroke="none" stroke-width="1"/><path id="eypgYMc9kiH5" d="M135.41,156L94.78,267.25C94.390311,268.318582,93.584827,269.184017,92.546921,269.649285C91.509015,270.114553,90.327011,270.140061,89.27,269.72L89.27,269.72C87.161943,268.88248,86.093075,266.528319,86.85,264.39L126.32,153C126.729603,151.854773,126.620078,150.587935,126.02,149.53C123.43,144.94,116.72,131.09,120.41,116.44C124.93,98.44,144.24,96.02,154.92,103.83C165.41,111.5,167.58,139.83,137.65,153.63C136.620476,154.094347,135.815591,154.945944,135.41,156Z" transform="matrix(1 0 0 1 -69.76 -41.14)" fill="rgb(0,24,48)" stroke="none" stroke-width="1"/><path id="eypgYMc9kiH6" d="M193.53,325.65C193.53,325.65,175.05,305.52,167.24,290.73C159.43,275.94,145.47,230.48,145.47,230.48C145.47,230.48,143.82,250.63,126.98,261.48C110.14,272.33,100.69,271.36,100.69,271.36C100.69,271.36,125.34,307.62,141.36,321.79C157.38,335.96,198.05,358.55,198.05,358.55C198.05,358.55,211.54,347.65,193.53,325.65Z" transform="matrix(1 0 0 1 -69.76 -41.14)" fill="rgb(255,255,255)" stroke="rgb(205,210,215)" stroke-width="3"/><path id="eypgYMc9kiH7" d="M207.26,337.93C206.39,331.85,198.26,327.93,193.2,321.36C193.317258,322.980586,193.564723,324.589109,193.94,326.17C193.8,325.99,193.68,325.82,193.53,325.65C193.53,325.65,189.27,321.01,183.99,314.56C184.32,323.26,182.51,331.36,174.2,334.83C170.886021,336.17206,167.476565,337.265091,164,338.1C174.87,345.1,186.15,351.72,192.62,355.42C192.18,356.02,191.75,356.62,191.33,357.23C199.81,352.45,208,346.76,207.26,337.93Z" transform="matrix(1 0 0 1 -69.76 -41.14)" opacity="0.2" fill="rgb(15,37,59)" stroke="none" stroke-width="1"/><path id="eypgYMc9kiH8" d="M104,174.45C104,174.45,120.3,186.99,115.48,196.24C109.87,207,104.36,197.62,99,189.66C93.64,181.7,94.68,175,104,174.45Z" transform="matrix(1 0 0 1 -69.76 -41.14)" fill="rgb(255,178,115)" stroke="none" stroke-width="1"/><path id="eypgYMc9kiH9" d="M130.17,182.71C126.897994,182.167554,123.571,183.292806,121.3,185.71C116.93,190.12,118.3,196.76,128.73,196.15C139.16,195.54,141.38,192.15,141.38,192.15Z" transform="matrix(1 0 0 1 -69.76 -41.14)" fill="rgb(255,178,115)" stroke="none" stroke-width="1"/><path id="eypgYMc9kiH10" d="M93.59,231.51C88.8,231.51,82.38,226.74,80.73,225.28C80.229369,224.751251,80.217635,223.927017,80.703011,223.384231C81.188387,222.841445,82.008804,222.761346,82.59,223.2C85.23,225.54,91.59,229.47,94.47,228.61C95.10251,228.413102,95.563036,227.866715,95.65,227.21C96.5,223.92,91.65,216.81,87.14,211.57C86.26,210.66,85.36,209.66,84.43,208.57C83.957972,207.993309,84.020447,207.147921,84.572121,206.646884C85.123796,206.145846,85.971277,206.1648,86.5,206.69C86.85,207.06,87.89,208.16,89.21,209.69C95.66,216.46,98.71,216.69,99.79,216.4C100.87,216.11,101.86,214.69,102.37,212.24C104.28,203.09,92.28,195.67,92.16,195.59C91.502781,195.192355,91.292355,194.337219,91.69,193.68C92.087645,193.022781,92.942781,192.812355,93.6,193.21C94.17,193.56,107.41,201.76,105.1,212.81C104.35,216.39,102.8,218.5,100.48,219.1C98.801394,219.424672,97.062048,219.144818,95.57,218.31C97.62,221.75,99.02,225.31,98.34,227.89C98.020042,229.4898,96.842992,230.782248,95.28,231.25C94.732441,231.418971,94.163027,231.506573,93.59,231.51Z" transform="matrix(1 0 0 1 -69.76 -41.14)" fill="rgb(255,144,87)" stroke="none" stroke-width="1"/><path id="eypgYMc9kiH11" d="M94.37,239C94.115962,239.002408,93.866401,238.933085,93.65,238.8C92.993555,238.402498,92.77947,237.550617,93.17,236.89C94.291949,235.002797,94.345053,232.666226,93.31,230.73C92.917878,230.067258,93.137258,229.212122,93.8,228.82C94.462742,228.427878,95.317878,228.647258,95.71,229.31C97.255147,232.12542,97.19811,235.547634,95.56,238.31C95.312919,238.733911,94.860647,238.996153,94.37,239Z" transform="matrix(1 0 0 1 -69.76 -41.14)" fill="rgb(255,144,87)" stroke="none" stroke-width="1"/><path id="eypgYMc9kiH12" d="M106.71,201.78C106.322637,201.76438,105.959709,201.586546,105.71,201.29C101.977388,196.6374,98.874019,191.51331,96.48,186.05C96.233336,185.594371,96.260554,185.039368,96.550617,184.610061C96.84068,184.180754,97.34544,183.948404,97.860202,184.007236C98.374964,184.066068,98.814282,184.406316,99,184.89C101.303768,190.105357,104.264402,195.005022,107.81,199.47C108.065461,199.750561,108.194131,200.123929,108.165753,200.502306C108.137374,200.880684,107.954452,201.230683,107.66,201.47C107.393659,201.689258,107.054403,201.799962,106.71,201.78Z" transform="matrix(1 0 0 1 -69.76 -41.14)" fill="rgb(255,144,87)" stroke="none" stroke-width="1"/><path id="eypgYMc9kiH13" d="M109.81,247.88C108.568845,247.878205,107.329273,247.791335,106.1,247.62C105.733648,247.570371,105.40216,247.376844,105.178842,247.082215C104.955525,246.787586,104.858779,246.416133,104.91,246.05C104.954415,245.681267,105.146632,245.346367,105.442616,245.122022C105.738599,244.897678,106.112984,244.803116,106.48,244.86C122.61,247.06,125.84,232.86,125.97,232.24C126.178506,231.540888,126.88893,231.11908,127.602546,231.27069C128.316161,231.422301,128.793733,232.096504,128.7,232.82C128.67,233,125.35,247.88,109.81,247.88Z" transform="matrix(1 0 0 1 -69.76 -41.14)" fill="rgb(255,144,87)" stroke="none" stroke-width="1"/><path id="eypgYMc9kiH14" d="M153.29,316.22C152.78,316.22,152.29,316.22,151.72,316.17C151.351182,316.151895,151.004726,315.987781,150.757082,315.713871C150.509437,315.439962,150.38096,315.078771,150.4,314.71C150.4483,313.942875,151.102118,313.355773,151.87,313.39C156.28,313.63,159.5,312.81,161.45,310.96C162.529129,309.951772,163.198507,308.58097,163.33,307.11C163.391419,306.385226,163.997628,305.828216,164.725,305.828216C165.452372,305.828216,166.058581,306.385226,166.12,307.11C165.995764,309.348376,165.010307,311.451878,163.37,312.98C161.1,315.13,157.71,316.22,153.29,316.22Z" transform="matrix(1 0 0 1 -69.76 -41.14)" fill="rgb(205,210,215)" stroke="none" stroke-width="1"/><path id="eypgYMc9kiH15" d="M129,117.29C128.062529,118.766633,127.284819,120.338814,126.68,121.98" transform="matrix(1 0 0 1 -69.76 -41.14)" fill="none" stroke="rgb(15,37,59)" stroke-width="3" stroke-linecap="round" stroke-linejoin="round"/><path id="eypgYMc9kiH16" d="M126.35,129.4C126.67,135.86,130.96,143.71,138.2,143.83C143.34,143.91,148.86,140.01,149.99,134.89" transform="matrix(1 0 0 1 -69.76 -41.14)" fill="none" stroke="rgb(15,37,59)" stroke-width="3" stroke-linecap="round" stroke-linejoin="round"/></g></g><g id="eypgYMc9kiH17"><path id="eypgYMc9kiH18" d="M325.09,340.78C331.803548,340.351254,338.467963,339.347577,345.01,337.78C344.78,312.95,346.77,290.25,351.1,271.78C364.24,215.69,381.77,179.14,381.77,179.14L241.55,135.12C241.55,135.12,212.25,188.25,205.13,245.39C199.96,286.82,200.42,315.87,201.06,328.72C201.956368,329.081544,202.874903,329.385496,203.81,329.63C242.84,343.57,284.66,343.57,325.09,340.78Z" transform="matrix(1 0 0 1 -69.76 -41.14)" fill="rgb(255,178,115)" stroke="none" stroke-width="1"/><path id="eypgYMc9kiH19" d="M325.09,340.78C284.66,343.57,242.84,343.57,203.81,329.63C202.874903,329.385496,201.956368,329.081544,201.06,328.72C201.3,333.58,201.57,336.14,201.57,336.14C183.49,433.63,217.45,498.81,217.45,498.81L374.1,498.81C355.35,448.08,345.5,388.49,345.01,337.81C338.467081,339.36747,331.802677,340.361109,325.09,340.78Z" transform="matrix(1 0 0 1 -69.76 -41.14)" fill="rgb(255,255,255)" stroke="rgb(211,215,219)" stroke-width="4"/><path id="eypgYMc9kiH20" d="M324.6,360.4C322.31,359.76,261.53,371.65,261.53,371.65L258.8,352.73C258.8,352.73,315.24,357.05,324.6,360.4Z" transform="matrix(1 0 0 1 -69.76 -41.14)" opacity="0.2" fill="rgb(15,37,59)" stroke="none" stroke-width="1"/><path id="eypgYMc9kiH21" d="M250,353.67C250.06,353.37,250.11,353.07,250.16,352.76C251.93,340.65,246.71,341.87,246.71,341.87C241.71,339.68,230.4,339.7,227.33,349.35C220.53,349.7,206.33,351.68,196.89,361.67C196.37,362.22,195.89,362.78,195.35,363.34C196.95,371.4,196.29,378.95,196.35,388.15C199.85,387.15,205.35,386,208.53,384.59C218.68,380.09,227.62,370.72,231.33,366.46C232.58583,366.994021,233.897254,367.386442,235.24,367.63C235.426338,367.678263,235.617575,367.705103,235.81,367.71C236.02,374.47,237.06,386.71,241.66,396.33C246.44,406.38,254.99,417.05,259.53,422.4C260.111096,423.090031,261.032376,423.392209,261.909275,423.180398C262.786174,422.968587,263.467945,422.279198,263.67,421.4C265.22,414.4,267.82,400.09,267.11,385.83C266.29,370.13,254.9,358.14,250,353.67Z" transform="matrix(1 0 0 1 -69.76 -41.14)" opacity="0.2" fill="rgb(15,37,59)" stroke="none" stroke-width="1"/><path id="eypgYMc9kiH22" d="M347.27,378.68C341.964654,376.280509,337.504479,372.339526,334.47,367.37L337.05,409.42L350.12,402.14Z" transform="matrix(1 0 0 1 -69.76 -41.14)" opacity="0.2" fill="rgb(15,37,59)" stroke="none" stroke-width="1"/><path id="eypgYMc9kiH23" d="M343.28,465.59L346.89,499.07L374.1,499.07C374.1,499.07,364.37,470.42,362.1,460.95C362.13,461,347.94,456.28,343.28,465.59Z" transform="matrix(1 0 0 1 -69.76 -41.14)" opacity="0.2" fill="rgb(15,37,59)" stroke="none" stroke-width="1"/><path id="eypgYMc9kiH24" d="M381.77,179.19C381.77,179.19,334.77,186.29,326.59,200.28C318.41,214.27,315.26,234.43,336.86,239.06C336.86,239.06,320.86,248.06,323.3,256.82C325.74,265.58,342.92,259.25,357.96,245.39Z" transform="matrix(1 0 0 1 -69.76 -41.14)" fill="rgb(0,24,48)" stroke="none" stroke-width="1"/><path id="eypgYMc9kiH25" d="M234.1,150.13C234.1,150.13,205.81,140.32,198.01,153.47C190.21,166.62,213.21,180.99,238.68,165.79C238.68,165.79,241.55,180.17,262.5,174.79C262.5,174.79,268.08,193.42,296.19,177.26Z" transform="matrix(1 0 0 1 -69.76 -41.14)" fill="rgb(0,24,48)" stroke="none" stroke-width="1"/><path id="eypgYMc9kiH26" d="M305,229.33C305.618802,229.687266,306.381198,229.687266,307,229.33C309.3,227.99,314.85,224.33,315.89,219.69C317.21,213.79,305.39,215.28,295.34,204.54C292.501665,201.666273,289.943451,198.528776,287.7,195.17C287.338557,194.567576,286.687536,194.198968,285.985,194.198968C285.282464,194.198968,284.631443,194.567576,284.27,195.17C281.53,199.45,277.76,207.17,281.89,212.76C287,219.64,301.11,227.33,305,229.33Z" transform="matrix(1 0 0 1 -69.76 -41.14)" fill="rgb(0,24,48)" stroke="none" stroke-width="1"/><path id="eypgYMc9kiH27" d="M287,242.05C285.29023,242.041323,283.596187,241.722843,282,241.11C279.499198,240.26441,277.47239,238.401055,276.42,235.98C274.35,231.13,276.76,225.35,276.86,225.11C277.312873,224.046852,278.541852,223.552127,279.605,224.005C280.668148,224.457873,281.162873,225.686852,280.71,226.75C280.257127,227.813148,278.89,231.16,280.27,234.35C280.885161,235.711763,282.053423,236.745366,283.48,237.19C289.82,239.58,294.68,234.63,294.73,234.58C295.235377,233.990427,296.025964,233.729653,296.782937,233.902841C297.53991,234.07603,298.138457,234.654626,298.337199,235.405294C298.53594,236.155963,298.302108,236.954934,297.73,237.48C294.855681,240.299052,291.024248,241.930892,287,242.05Z" transform="matrix(1 0 0 1 -69.76 -41.14)" fill="rgb(0,24,48)" stroke="none" stroke-width="1"/><path id="eypgYMc9kiH28" d="M339.82,258C339.82,258,351.64,239.07,365.2,246.18C378.76,253.29,378.2,283.83,362.32,292.32C346.44,300.81,338.91,290.2,336.44,281.6C333.97,273,339.82,258,339.82,258Z" transform="matrix(1 0 0 1 -69.76 -41.14)" fill="rgb(255,178,115)" stroke="none" stroke-width="1"/><path id="eypgYMc9kiH29" d="M317.69,427.24C317.69,427.24,314.17,437.9,329.51,453C344.85,468.1,356.21,469.59,357.65,467.48C359.09,465.37,359.25,447.2,345.31,435.81C331.37,424.42,320.52,424,317.69,427.24Z" transform="matrix(1 0 0 1 -69.76 -41.14)" fill="rgb(0,24,48)" stroke="none" stroke-width="1"/><path id="eypgYMc9kiH30" d="M326.73,428.21C326.73,428.21,310.4,447.21,306.87,460.9C300.7,484.77,313.87,479.38,313.87,479.38C313.87,479.38,318.42,491.86,326.7,488.14C329.2,487.02,329.62,481.35,329.62,481.35C331.575708,484.844065,335.473974,486.781288,339.44,486.23C346.44,485.41,350.52,480.8,347.44,473C344.73,466.11,339.82,468.83,339.82,468.83C339.82,468.83,349.53,467.07,352.96,458.69C356.39,450.31,352.61,425.78,326.73,428.21Z" transform="matrix(1 0 0 1 -69.76 -41.14)" fill="rgb(255,178,115)" stroke="none" stroke-width="1"/><path id="eypgYMc9kiH31" d="M291.22,499.1C290.25911,499.139843,289.39395,498.521872,289.12,497.6C271.47,437.31,289.42,385.51,293.81,374.34C271.7,367.82,265.69,362.34,265.44,362.1C264.595004,361.312994,264.547994,359.989996,265.335,359.145C266.122006,358.300004,267.445004,358.252994,268.29,359.04C268.42,359.15,274.65,364.57,297.2,370.97C297.787557,371.133468,298.273768,371.546565,298.53,372.1C298.78028,372.653,298.78028,373.287,298.53,373.84C298.28,374.39,273.72,430.14,293.13,496.42C293.452256,497.52724,292.816807,498.686262,291.71,499.01C291.550622,499.058541,291.386225,499.088736,291.22,499.1Z" transform="matrix(1 0 0 1 -69.76 -41.14)" fill="rgb(205,210,215)" stroke="none" stroke-width="1"/><path id="eypgYMc9kiH32" d="M383.06,179.16C383.06,179.16,395.79,194.78,427.33,183.53C453.33,174.24,450.12,132.13,425.27,115.8C393.05,94.63,359.63,115.8,359.63,115.8C359.63,115.8,366.41,56.52,302.47,44.24C251.87,34.52,233.09,71.24,234.59,96.81C234.59,96.81,211.81,91.81,198.33,108.19C174.69,136.93,230.85,149.19,230.85,149.19C230.85,149.19,267.75,166.6,294.85,177.19C317.37,185.99,358.17,197.5,371.31,201.13C373.666128,201.788706,376.120485,200.462027,376.86,198.13Z" transform="matrix(1 0 0 1 -69.76 -41.14)" fill="rgb(255,255,255)" stroke="rgb(193,193,193)" stroke-width="3" stroke-linecap="round" stroke-linejoin="round"/><path id="eypgYMc9kiH33" d="M344.05,346.07C344.05,346.07,353.73,342.78,354.6,351.56C354.6,351.56,378.91,367.11,390.18,372.18C401.45,377.25,421,385.69,421,396C421,406.31,387.6,425.83,377.63,439.27C367.66,452.71,357.63,467.47,357.63,467.47C357.63,467.47,352.76,431.68,317.63,427.23C326.648725,419.031007,336.232317,411.475741,346.31,404.62C361.93,394.16,369.31,390.23,369.31,390.23L346.16,376.23C346.16,376.23,333.05,357.4,344.05,346.07Z" transform="matrix(1 0 0 1 -69.76 -41.14)" fill="rgb(255,255,255)" stroke="rgb(211,215,219)" stroke-width="3"/><path id="eypgYMc9kiH34" d="M324.6,332.85C308.05,336.56,279.1,339.62,239.49,330.95C237.78,330.58,234.01,331.22,232.36,330.67C216.93,325.45,204.9,310.74,204.9,310.74C202.301085,309.25146,200.698454,306.485014,200.7,303.49L200.7,301.77C200.7,301.77,187.13,312.45,196.27,332.99C205.41,353.53,241.11,352.85,241.11,352.85C241.11,352.85,296.25,368.57,329.46,359.24C352.05,352.9,361.46,333.81,345.19,321.07L345.14,323.32C345.08,325.76,335.19,330.48,324.6,332.85Z" transform="matrix(1 0 0 1 -69.76 -41.14)" fill="rgb(239,70,49)" stroke="none" stroke-width="1"/><path id="eypgYMc9kiH35" d="M247.3,325.59C240.73,323.59,225.52,325.59,225.93,340.79C226.34,355.99,233.58,355.79,237.57,356.3C241.56,356.81,252.21,349.66,252.57,337.51C253.08,323.54,247.3,325.59,247.3,325.59Z" transform="matrix(1 0 0 1 -69.76 -41.14)" fill="rgb(239,70,49)" stroke="none" stroke-width="1"/><path id="eypgYMc9kiH36" d="M260,405.72C260.92,399.19,261.62,390.18,259.19,390.24C256.76,390.3,254.13,401.92,254.45,408.76C254.68,412.86,258.69,415.33,260,405.72Z" transform="matrix(1 0 0 1 -69.76 -41.14)" fill="rgb(0,24,48)" stroke="none" stroke-width="1"/><path id="eypgYMc9kiH37" d="M256.78,414.47L256.6,414.47C254.31,414.36,252.55,412,252.4,408.85C252.11,402.65,254.14,392.21,256.84,389.31C257.427288,388.617992,258.273668,388.198419,259.18,388.15C260.081312,388.129111,260.944232,388.514671,261.53,389.2C262.23,389.98,264.08,392.05,262.11,406.02L262.11,406.02C261.14,413,258.71,414.47,256.78,414.47ZM258.78,394.47C257.254652,399.05659,256.510962,403.866914,256.58,408.7C256.596529,409.092049,256.670656,409.479533,256.8,409.85C257.427928,408.464174,257.823223,406.984353,257.97,405.47C258.553436,401.819728,258.824418,398.126338,258.78,394.43Z" transform="matrix(1 0 0 1 -69.76 -41.14)" fill="rgb(0,24,48)" stroke="none" stroke-width="1"/><path id="eypgYMc9kiH38" d="M238.33,349.66C237.851351,350.211556,237.61364,350.931891,237.67,351.66C238.13,356.45,240.38,374.89,248.53,388C255.24,398.78,266.31,409.81,272.15,415.29C272.900897,416.000999,273.990971,416.222687,274.959928,415.861453C275.928884,415.500219,276.607801,414.619039,276.71,413.59C277.57,405.41,278.71,388.88,276.06,372.78C273,354.39,257.43,342,251.8,338C250.666682,337.201332,249.113326,337.386872,248.2,338.43Z" transform="matrix(1 0 0 1 -69.76 -41.14)" fill="rgb(239,70,49)" stroke="none" stroke-width="1"/><path id="eypgYMc9kiH39" d="M234.52,351.62C234.69377,352.355216,234.556271,353.129557,234.14,353.76C231.6,357.63,221.78,371.76,209.44,378.97C199.37,384.87,185.73,389.12,178.44,391.15C177.446861,391.425629,176.38334,391.114035,175.695965,390.346042C175.008591,389.57805,174.816367,388.48662,175.2,387.53C178.1,380.3,184.31,366.41,193.33,354.45C203.75,340.64,221.82,337.11,228.33,336.26C229.710898,336.073251,231.008344,336.964164,231.33,338.32Z" transform="matrix(1 0 0 1 -69.76 -41.14)" fill="rgb(239,70,49)" stroke="none" stroke-width="1"/><path id="eypgYMc9kiH40" d="M341.12,478.56C340.550292,478.558746,340.039029,478.209977,339.83,477.68L336.52,469.35C336.349019,468.92015,336.401418,468.433589,336.66,468.05C336.92293,467.668397,337.356585,467.440354,337.82,467.44L339.87,467.44C340.396583,467.395376,340.903421,467.651074,341.180447,468.101116C341.457472,468.551158,341.457472,469.118842,341.180447,469.568884C340.903421,470.018926,340.396583,470.274624,339.87,470.23L339.87,470.23L342.42,476.65C342.70066,477.365151,342.35258,478.172875,341.64,478.46C341.475044,478.527591,341.298259,478.561588,341.12,478.56Z" transform="matrix(1 0 0 1 -69.76 -41.14)" fill="rgb(255,144,87)" stroke="none" stroke-width="1"/><path id="eypgYMc9kiH41" d="M329.65,482.74C329.170445,482.743083,328.723673,482.49698,328.47,482.09C325.255916,476.309352,323.993336,469.645738,324.87,463.09C325.013204,462.364541,325.695905,461.875548,326.428853,461.973451C327.161802,462.071353,327.692224,462.722388,327.64,463.46C326.869172,469.386109,327.985361,475.404434,330.83,480.66C331.028873,480.97323,331.093238,481.353346,331.008572,481.714587C330.923906,482.075828,330.697343,482.387758,330.38,482.58C330.157784,482.704194,329.90379,482.759863,329.65,482.74Z" transform="matrix(1 0 0 1 -69.76 -41.14)" fill="rgb(255,144,87)" stroke="none" stroke-width="1"/><path id="eypgYMc9kiH42" d="M313.9,480.77C313.371378,480.769909,312.88788,480.472075,312.65,480C312.53,479.75,309.65,473.7,312.55,462.86C312.751584,462.117177,313.517177,461.678416,314.26,461.88C315.002823,462.081584,315.441584,462.847177,315.24,463.59C312.59,473.42,315.12,478.71,315.15,478.76C315.489638,479.450542,315.208257,480.285754,314.52,480.63C314.327166,480.724626,314.114784,480.772583,313.9,480.77Z" transform="matrix(1 0 0 1 -69.76 -41.14)" fill="rgb(255,144,87)" stroke="none" stroke-width="1"/><path id="eypgYMc9kiH43" d="M381.67,179.16C381.387174,179.160209,381.111215,179.07288,380.88,178.91C380.55,178.69,372.65,173.21,368.03,161.09C367.806707,160.383694,368.17226,159.62569,368.863988,159.36066C369.555717,159.09563,370.334177,159.415314,370.64,160.09C374.95,171.4,382.38,176.56,382.45,176.61C382.757744,176.817053,382.96997,177.138514,383.039459,177.502861C383.108947,177.867208,383.029935,178.244215,382.82,178.55C382.559085,178.928709,382.129874,179.156377,381.67,179.16Z" transform="matrix(1 0 0 1 -69.76 -41.14)" fill="rgb(205,210,215)" stroke="none" stroke-width="1"/><path id="eypgYMc9kiH44" d="M299.91,159.72C293.974731,159.749162,288.068779,158.886192,282.39,157.16C227.77,140.28,233.15,97.05,233.21,96.61C233.328348,95.855783,234.021862,95.330125,234.78,95.42C235.153806,95.462142,235.494571,95.653991,235.724475,95.951735C235.954378,96.249479,236.053787,96.627691,236,97C235.77,98.68,230.95,138.33,283.25,154.5C308.9,162.43,334.93,148.12,335.19,147.98C335.861026,147.604446,336.709446,147.843974,337.085,148.515C337.460554,149.186026,337.221026,150.034446,336.55,150.41C335.66,150.89,319.62,159.72,299.91,159.72Z" transform="matrix(1 0 0 1 -69.76 -41.14)" fill="rgb(205,210,215)" stroke="none" stroke-width="1"/><path id="eypgYMc9kiH45" d="M377.72,192.66C377.610217,192.669777,377.499783,192.669777,377.39,192.66C375.39,192.17,373.79,191.66,372.22,191.2C370.83,190.77,369.39,190.33,367.68,189.89C367.197691,189.766743,366.817777,189.395541,366.683366,188.916221C366.548955,188.436901,366.680468,187.922284,367.028366,187.566221C367.376263,187.210158,367.887691,187.066743,368.37,187.19C370.15,187.64,371.62,188.1,373.04,188.53C374.64,189.02,376.14,189.48,378.04,189.95C378.70939,190.132815,379.143861,190.77838,379.061185,191.467342C378.97851,192.156304,378.403638,192.680748,377.71,192.7Z" transform="matrix(1 0 0 1 -69.76 -41.14)" fill="rgb(205,210,215)" stroke="none" stroke-width="1"/><path id="eypgYMc9kiH46" d="M361.11,188.44C360.993799,188.454747,360.876201,188.454747,360.76,188.44C359.52,188.12,356.76,187.3,354.11,186.5C351.87,185.83,349.71,185.19,348.69,184.91C348.329805,184.820703,348.020753,184.590099,347.832599,184.270236C347.644444,183.950373,347.593044,183.56821,347.69,183.21C347.783979,182.850525,348.017001,182.543152,348.33774,182.355585C348.658479,182.168019,349.040623,182.115645,349.4,182.21C350.4,182.49,352.62,183.14,354.9,183.82C357.53,184.61,360.26,185.42,361.44,185.73C362.12467,185.897836,362.575291,186.551623,362.488482,187.251199C362.401674,187.950774,361.804926,188.474596,361.1,188.47Z" transform="matrix(1 0 0 1 -69.76 -41.14)" fill="rgb(205,210,215)" stroke="none" stroke-width="1"/><path id="eypgYMc9kiH47" d="M365.46,200.9C365.321166,200.899731,365.183089,200.879525,365.05,200.84C364.53,200.69,312.66,185.01,286.48,175.35C265.9,167.76,243.28,156.9,234.48,152.58C231.044013,150.894083,228.518819,147.787838,227.57,144.08C226.637765,140.458972,227.327681,136.611501,229.46,133.54L229.67,133.25C230.117351,132.623157,230.988157,132.477649,231.615,132.925C232.241843,133.372351,232.387351,134.243157,231.94,134.87L231.74,135.15C230.068785,137.54962,229.531647,140.560517,230.27,143.39C231.016512,146.308856,233.004726,148.75392,235.71,150.08C244.44,154.38,266.94,165.19,287.4,172.74C313.51,182.36,365.3,198.02,365.82,198.18C366.478362,198.379964,366.891356,199.031504,366.791248,199.712242C366.691139,200.39298,366.108057,200.898039,365.42,200.9Z" transform="matrix(1 0 0 1 -69.76 -41.14)" fill="rgb(205,210,215)" stroke="none" stroke-width="1"/><path id="eypgYMc9kiH48" d="M320.37,426.22C319.988554,426.215764,319.626146,426.052681,319.37,425.77C319.108872,425.497354,318.969875,425.130221,318.984964,424.752999C319.000053,424.375777,319.167929,424.020918,319.45,423.77C327.686319,416.377159,336.438437,409.579982,345.64,403.43C346.280904,403.058867,347.100245,403.25542,347.503023,403.876925C347.9058,404.49843,347.750544,405.326589,347.15,405.76C338.079031,411.8259,329.453677,418.533023,321.34,425.83C321.077481,426.077771,320.730968,426.21709,320.37,426.22Z" transform="matrix(1 0 0 1 -69.76 -41.14)" fill="rgb(205,210,215)" stroke="none" stroke-width="1"/><path id="eypgYMc9kiH49" d="M340.39,381C339.451365,380.99411,338.514831,380.910491,337.59,380.75C336.830608,380.622975,336.317975,379.904392,336.445,379.145C336.572025,378.385608,337.290608,377.872975,338.05,378C339.983297,378.423436,341.997878,378.277553,343.85,377.58C339.041959,376.246351,335.406555,372.300891,334.47,367.4C334.315843,366.646748,334.797995,365.910128,335.55,365.75C335.91238,365.670352,336.291568,365.739983,336.602009,365.943181C336.912451,366.146379,337.127991,366.466025,337.2,366.83C338.91,374.99,347.11,375.44,347.2,375.45C347.695314,375.475116,348.140374,375.760411,348.37,376.2C348.603058,376.644659,348.576251,377.180807,348.3,377.6C348.2,377.73,346,381,340.39,381Z" transform="matrix(1 0 0 1 -69.76 -41.14)" fill="rgb(205,210,215)" stroke="none" stroke-width="1"/><path id="eypgYMc9kiH50" d="M386.43,391.64C386.191767,391.638411,385.95782,391.576484,385.75,391.46C377.83,387,370.12,391.4,370.04,391.46C369.381784,391.781656,368.586893,391.541467,368.21694,390.909135C367.846986,390.276803,368.027088,389.466182,368.63,389.05C369.01,388.83,377.81,383.8,387.12,389.05C387.443207,389.230751,387.680927,389.532999,387.780427,389.889697C387.879927,390.246394,387.83298,390.62805,387.65,390.95C387.394542,391.380149,386.930279,391.642723,386.43,391.64Z" transform="matrix(1 0 0 1 -69.76 -41.14)" fill="rgb(205,210,215)" stroke="none" stroke-width="1"/><path id="eypgYMc9kiH51" d="M216.18,400.67C217.1,394.14,217.8,385.13,215.37,385.19C212.94,385.25,210.31,396.87,210.63,403.71C210.82,407.81,214.83,410.27,216.18,400.67Z" transform="matrix(1 0 0 1 -69.76 -41.14)" fill="rgb(0,24,48)" stroke="none" stroke-width="1"/><path id="eypgYMc9kiH52" d="M212.91,409.42L212.74,409.42C210.45,409.31,208.69,406.95,208.54,403.8C208.25,397.6,210.28,387.16,212.97,384.26C213.558031,383.568942,214.403974,383.149586,215.31,383.1C216.206636,383.063589,217.072489,383.430476,217.67,384.1C218.37,384.88,220.22,386.95,218.25,400.91L218.25,400.91C217.27,407.91,214.85,409.42,212.91,409.42ZM214.91,389.42C213.388416,394.007259,212.648118,398.817506,212.72,403.65C212.731146,404.042655,212.805429,404.430956,212.94,404.8C213.566389,403.413624,213.961614,401.934062,214.11,400.42C214.696448,396.770178,214.964125,393.07624,214.91,389.38Z" transform="matrix(1 0 0 1 -69.76 -41.14)" fill="rgb(0,24,48)" stroke="none" stroke-width="1"/><path id="eypgYMc9kiH53" d="M218.57,459.71C218.4,453.12,217.62,444.12,215.23,444.58C212.84,445.04,212.15,456.92,213.59,463.58C214.45,467.63,218.81,469.41,218.57,459.71Z" transform="matrix(1 0 0 1 -69.76 -41.14)" fill="rgb(0,24,48)" stroke="none" stroke-width="1"/><path id="eypgYMc9kiH54" d="M216.2,468.93C214.09,468.93,212.2,466.93,211.54,464.05C210.24,457.98,210.54,447.35,212.72,444.05C213.187031,443.272856,213.954077,442.722899,214.84,442.53C215.725502,442.361595,216.639796,442.600266,217.33,443.18C218.15,443.83,220.33,445.58,220.66,459.67L220.66,459.67C220.84,466.89,218.55,468.67,216.66,468.91C216.507464,468.92915,216.353622,468.935839,216.2,468.93ZM215.47,448.78C214.721604,453.555457,214.775681,458.422351,215.63,463.18C215.711825,463.564835,215.849979,463.935492,216.04,464.28C216.435636,462.808036,216.584321,461.280632,216.48,459.76L216.48,459.76C216.456974,456.077899,216.119076,452.404513,215.47,448.78Z" transform="matrix(1 0 0 1 -69.76 -41.14)" fill="rgb(0,24,48)" stroke="none" stroke-width="1"/><path id="eypgYMc9kiH55" d="M258.28,458.9C258.12,452.3,257.33,443.31,254.94,443.76C252.55,444.21,251.86,456.11,253.3,462.76C254.16,466.82,258.52,468.6,258.28,458.9Z" transform="matrix(1 0 0 1 -69.76 -41.14)" fill="rgb(0,24,48)" stroke="none" stroke-width="1"/><path id="eypgYMc9kiH56" d="M255.92,468.12C253.8,468.12,251.92,466.12,251.26,463.24C249.95,457.17,250.26,446.53,252.43,443.24C252.897031,442.462856,253.664077,441.912899,254.55,441.72C255.435502,441.551595,256.349796,441.790266,257.04,442.37C257.86,443.02,260.04,444.77,260.37,458.86L260.37,458.86C260.55,466.08,258.27,467.86,256.32,468.1ZM255.18,448C254.430188,452.772324,254.487655,457.636721,255.35,462.39C255.426234,462.779599,255.56467,463.154391,255.76,463.5C256.145357,462.026241,256.290554,460.499985,256.19,458.98L256.19,458.98C256.166974,455.297899,255.829076,451.624513,255.18,448Z" transform="matrix(1 0 0 1 -69.76 -41.14)" fill="rgb(0,24,48)" stroke="none" stroke-width="1"/><path id="eypgYMc9kiH57" d="M211,207.06C210.295716,207.091155,209.627046,206.749221,209.24,206.16C207.74,203.97,204.31,198.29,205.38,193.64C206.73,187.74,216.75,194.18,230.45,188.83C234.247841,187.462465,237.907535,185.738089,241.38,183.68C241.963733,183.285572,242.711932,183.227351,243.349653,183.526732C243.987375,183.826112,244.420551,184.438933,244.49,185.14C245.11,190.19,245.16,198.82,239.04,202.04C231.43,206.07,215.36,206.91,211,207.06Z" transform="matrix(1 0 0 1 -69.76 -41.14)" fill="rgb(0,24,48)" stroke="none" stroke-width="1"/><path id="eypgYMc9kiH58" d="M222.91,226.8C222.119561,226.798719,221.331602,226.711541,220.56,226.54C217.957739,226.107767,215.664769,224.58276,214.26,222.35C212.01,218.58,213.26,213.97,213.35,213.78C213.743005,212.774823,214.836736,212.234202,215.873994,212.532413C216.911251,212.830625,217.550854,213.86958,217.35,214.93C217.149146,215.99042,216.52,218.04,217.84,220.22C218.662983,221.437502,219.964368,222.248141,221.42,222.45C228.03,223.87,230.66,214.83,230.69,214.74C230.824781,213.951744,231.397542,213.3095,232.165294,213.085735C232.933045,212.86197,233.761176,213.095918,234.298359,213.688326C234.835541,214.280735,234.98759,215.127738,234.69,215.87C233.6,219.9,229.77,226.8,222.91,226.8Z" transform="matrix(1 0 0 1 -69.76 -41.14)" fill="rgb(0,24,48)" stroke="none" stroke-width="1"/><path id="eypgYMc9kiH59" d="M349.24,282.32C348.902046,282.323147,348.574687,282.202166,348.32,281.98C346.44,280.33,345.82,276.19,345.86,272.87C345.95,266.6,348.1,261.11,351.61,258.19C357.55,253.26,363.94,256.56,366.5,259C366.768754,259.263325,366.920204,259.623744,366.920204,260C366.920204,260.376256,366.768754,260.736675,366.5,261C366.239494,261.273929,365.878022,261.429001,365.5,261.429001C365.121978,261.429001,364.760506,261.273929,364.5,261L364.5,261C364.27,260.78,358.81,255.74,353.31,260.32C349.91,263.15,348.63,268.67,348.57,272.89C348.57,276.52,349.31,279.19,350.08,279.89C350.365171,280.136817,350.538697,280.488251,350.561285,280.864723C350.583874,281.241194,350.453613,281.610856,350.2,281.89C349.948684,282.153557,349.603973,282.307958,349.24,282.32Z" transform="matrix(1 0 0 1 -69.76 -41.14)" fill="rgb(255,144,87)" stroke="none" stroke-width="1"/><path id="eypgYMc9kiH60" d="M355.4,284.48C355.260202,284.490629,355.119798,284.490629,354.98,284.48C354.611987,284.43512,354.277153,284.245084,354.049931,283.952137C353.822709,283.65919,353.721931,283.28761,353.77,282.92C353.873774,282.159173,354.567272,281.621267,355.33,281.71C356.71395,281.561652,357.970706,280.835204,358.79,279.71C359.94,278.18,360.03,276.27,359.07,274.04C356.72,268.59,348.47,271.28,348.39,271.31C347.655863,271.547639,346.867073,271.151016,346.62,270.42C346.503354,270.068615,346.531713,269.685213,346.69879,269.354814C346.865867,269.024415,347.157853,268.774325,347.51,268.66C351.22,267.42,358.95,266.72,361.63,272.93C362.98,276.06,362.76,279.07,361.01,281.38C359.676698,283.176455,357.630487,284.30716,355.4,284.48Z" transform="matrix(1 0 0 1 -69.76 -41.14)" fill="rgb(255,144,87)" stroke="none" stroke-width="1"/><path id="eypgYMc9kiH61" d="M234.1,318.4C228.029061,318.505295,222.180613,316.116034,217.92,311.79C217.367715,311.237715,217.367715,310.342285,217.92,309.79C218.472285,309.237715,219.367715,309.237715,219.92,309.79C229.61,319.56,242.47,314.21,243.01,313.98C243.716924,313.676243,244.536243,314.003076,244.84,314.71C245.143757,315.416924,244.816924,316.236243,244.11,316.54C240.91394,317.76262,237.521922,318.392905,234.1,318.4Z" transform="matrix(1 0 0 1 -69.76 -41.14)" fill="rgb(255,144,87)" stroke="none" stroke-width="1"/><path id="eypgYMc9kiH62" d="M248.75,348.89C248.75,348.89,261.13,360.14,264.53,385.19" transform="matrix(1 0 0 1 -69.76 -41.14)" fill="none" stroke="rgb(216,55,32)" stroke-width="3" stroke-linecap="round" stroke-linejoin="round"/><path id="eypgYMc9kiH63" d="M251.8,335.46C250.649864,342.934334,246.618775,349.66119,240.57,354.2" transform="matrix(1 0 0 1 -69.76 -41.14)" fill="none" stroke="rgb(216,55,32)" stroke-width="3" stroke-linecap="round" stroke-linejoin="round"/><path id="eypgYMc9kiH64" d="M228,332C226.694201,333.563411,225.957386,335.523552,225.91,337.56C225.862614,339.596448,218.56,335.62,208.49,342.22" transform="matrix(1 0 0 1 -69.76 -41.14)" fill="none" stroke="rgb(216,55,32)" stroke-width="3" stroke-linecap="round" stroke-linejoin="round"/><path id="eypgYMc9kiH65" d="M229,351.35C227.251164,346.941806,226.237694,342.276465,226,337.54" transform="matrix(1 0 0 1 -69.76 -41.14)" fill="none" stroke="rgb(216,55,32)" stroke-width="3" stroke-linecap="round" stroke-linejoin="round"/><path id="eypgYMc9kiH66" d="M198.73,369.69C205.365667,358.986807,214.761331,350.268183,225.93,344.45" transform="matrix(1 0 0 1 -69.76 -41.14)" fill="none" stroke="rgb(216,55,32)" stroke-width="3" stroke-linecap="round" stroke-linejoin="round"/><path id="eypgYMc9kiH67" d="M268.15,354.2C268.15,354.2,260.52,342.84,251.8,340.38" transform="matrix(1 0 0 1 -69.76 -41.14)" fill="none" stroke="rgb(216,55,32)" stroke-width="3" stroke-linecap="round" stroke-linejoin="round"/><path id="eypgYMc9kiH68" d="M345.52,334.05C345.52,334.05,335.69,350.27,285.18,349.36" transform="matrix(1 0 0 1 -69.76 -41.14)" fill="none" stroke="rgb(216,55,32)" stroke-width="3" stroke-linecap="round" stroke-linejoin="round"/><path id="eypgYMc9kiH69" d="M198.28,313.54C198.28,313.54,196.28,324.54,212.94,332.62" transform="matrix(1 0 0 1 -69.76 -41.14)" fill="none" stroke="rgb(216,55,32)" stroke-width="3" stroke-linecap="round" stroke-linejoin="round"/><path id="eypgYMc9kiH70" d="M425.27,115.8C417.783558,110.817644,409.209583,107.707006,400.27,106.73C402.231342,112.29449,403.004632,118.208289,402.54,124.09C400.47,143.72,386.01,156.09,369.48,162.31C375.68,179.88,357.08,189.17,345.72,199.5C342.044013,202.318279,339.483051,206.345685,338.49,210.87C336.42,223.26,336.42,234.62,336.42,247.02C341.48,245.47,345.65,246.69,348.67,249.43C348.878008,249.52092,349.078615,249.627911,349.27,249.75C359.6,256.82,362.49,272.3,352.87,281.43C348.01,286.04,339.11,289.85,332.5,287.83C332.421499,287.996374,332.351411,288.166589,332.29,288.34C327.93,301.43,327.29,317.46,328.4,332.71L328.4,332.71C329.596496,332.986443,330.736475,333.46679,331.77,334.13C333.525692,334.960774,334.939226,336.374308,335.77,338.13C335.88584,338.412268,335.979458,338.703153,336.05,339C336.423079,339.792707,336.717813,340.619971,336.93,341.47C337.51865,341.505803,338.087598,341.695453,338.58,342.02C342.2,344.33,344.18,348.17,342.26,352.3C341.938585,352.97125,341.539162,353.602271,341.07,354.18C346.96,357.08,352.92,362.49,358.72,365.68C394.26,385.18,421.01,389.91,401.89,417.41C411.94,409.23,421,401.37,421,396C421,385.68,401.48,377.25,390.2,372.17C378.92,367.09,354.62,351.55,354.62,351.55C354.25,347.83,352.29,346.28,350.17,345.73C355.44,337.83,354.6,328.4,345.23,321.07C345.54,311.84,346.23,303.01,347.23,294.7C351.11,296.03,356.1,295.7,362.39,292.31C378.23,283.82,378.83,253.31,365.27,246.17C363.127087,245.008508,360.703703,244.464978,358.27,244.6L373.92,201.09C375.338699,200.656337,376.457768,199.55965,376.92,198.15L378.92,192.05C379.024901,191.910146,379.099798,191.750139,379.14,191.58C379.154656,191.473837,379.154656,191.366163,379.14,191.26L383.09,179.15C383.09,179.15,395.82,194.77,427.36,183.52C453.35,174.24,450.12,132.13,425.27,115.8Z" transform="matrix(1 0 0 1 -69.76 -41.14)" opacity="0.2" fill="rgb(15,37,59)" stroke="none" stroke-width="1"/><path id="eypgYMc9kiH71" d="" transform="matrix(1 0 0 1 -69.76 -41.14)" fill="rgb(15,37,59)" stroke="none" stroke-width="1"/><path id="eypgYMc9kiH72" d="" transform="matrix(1 0 0 1 -69.76 -41.14)" fill="rgb(227,255,204)" stroke="none" stroke-width="1"/></g><g id="eypgYMc9kiH73_to" transform="translate(175.737144,216.994171)"><g id="eypgYMc9kiH73" transform="translate(-175.737144,-216.994171)"><path id="eypgYMc9kiH74" d="M252.06,256.35C252.397149,256.369884,252.735235,256.332694,253.06,256.24C255.85,255.46,269.06,255.6,276.25,266.94C284.25,279.57,286,289.12,298.89,288.77C301.464747,288.75803,304.018391,288.3048,306.44,287.43C307.599552,286.998639,308.903448,287.263044,309.80337,288.112027C310.703293,288.961011,311.043141,290.247307,310.68,291.43C307.78,301.14,300.1,314.43,279.73,315.26C247.35,316.66,232.03,290.96,232.37,272.81C232.68,256.36,249,256.23,252.06,256.35Z" transform="matrix(1 0 0 1 -69.76 -41.14)" fill="rgb(0,24,48)" stroke="none" stroke-width="1"/><path id="eypgYMc9kiH75" d="M225,254.81C224.769461,254.778916,224.546113,254.70785,224.34,254.6C222.55,253.65,213.52,252.25,207.06,260.67C199.86,270.06,197.36,277.67,188.62,275.88C186.838143,275.576512,185.136845,274.913006,183.62,273.93C182.06,272.86,180.02,274.51,180.18,276.68C180.82,284.94,184.23,296.63,197.99,299.68C219.88,304.54,233.86,285.33,236.13,270.48C238.18,257,227.09,255.06,225,254.81Z" transform="matrix(1 0 0 1 -69.76 -41.14)" fill="rgb(0,24,48)" stroke="none" stroke-width="1"/><path id="eypgYMc9kiH76" d="M254.29,264C254.29,264,271.54,210.6,261.29,202C251.04,193.4,229.29,240.63,229.29,240.63C229.29,240.63,215.73,235.28,211.21,247.63C205.94,261.77,239.09,290.26,254.29,264Z" transform="matrix(1 0 0 1 -69.76 -41.14)" fill="rgb(255,144,87)" stroke="none" stroke-width="1"/><path id="eypgYMc9kiH77" d="M262.33,203.14C257.56,219.98,255.69,237.23,245.48,251.14C237.29,261.85,224.88,262.95,213.17,259.14C220.65,272.19,242.69,284.02,254.29,263.96C254.29,264,270.24,214.6,262.33,203.14Z" transform="matrix(1 0 0 1 -69.76 -41.14)" opacity="0.1" fill="rgb(15,37,59)" stroke="none" stroke-width="1"/></g></g><g id="eypgYMc9kiH78" display="none"><path id="eypgYMc9kiH79" d="M150.48,81.12C148.72,75.65,149.48,76.38,143.98,74.62C142.77,74.23,142.77,73.28,143.98,72.89C149.45,71.13,148.72,71.89,150.48,66.38C150.87,65.17,151.82,65.17,152.21,66.38C153.97,71.85,153.21,71.13,158.72,72.89C159.93,73.28,159.93,74.23,158.72,74.62C153.24,76.38,153.97,75.62,152.21,81.12C151.82,82.33,150.87,82.33,150.48,81.12Z" transform="matrix(1 0 0 1 -69.76 -41.14)" fill="rgb(255,224,0)" stroke="none" stroke-width="1"/><path id="eypgYMc9kiH80" d="M77.18,88.16C75.42,82.68,76.18,83.41,70.67,81.65C69.46,81.26,69.46,80.31,70.67,79.92C76.14,78.16,75.42,78.92,77.18,73.42C77.57,72.2,78.52,72.2,78.91,73.42C80.66,78.89,79.91,78.16,85.41,79.92C86.62,80.31,86.62,81.26,85.41,81.65C79.94,83.41,80.66,82.65,78.91,88.16C78.52,89.37,77.57,89.37,77.18,88.16Z" transform="matrix(1 0 0 1 -69.76 -41.14)" fill="rgb(255,224,0)" stroke="none" stroke-width="1"/><path id="eypgYMc9kiH81" d="M165.26,200.4C163.5,194.93,164.26,195.65,158.75,193.89C157.54,193.5,157.54,192.56,158.75,192.17C164.22,190.41,163.5,191.17,165.26,185.66C165.65,184.45,166.59,184.45,166.98,185.66C168.74,191.13,167.98,190.41,173.49,192.17C174.7,192.56,174.7,193.5,173.49,193.89C168.02,195.65,168.74,194.89,166.98,200.4C166.59,201.61,165.65,201.61,165.26,200.4Z" transform="matrix(1 0 0 1 -69.76 -41.14)" fill="rgb(255,224,0)" stroke="none" stroke-width="1"/><path id="eypgYMc9kiH82" d="M92,149.65C90.24,144.18,91,144.91,85.5,143.15C84.28,142.76,84.28,141.81,85.5,141.42C90.97,139.66,90.24,140.42,92,134.91C92.39,133.7,93.34,133.7,93.73,134.91C95.49,140.38,94.73,139.66,100.24,141.42C101.45,141.81,101.45,142.76,100.24,143.15C94.76,144.91,95.49,144.15,93.73,149.65C93.32,150.86,92.37,150.86,92,149.65Z" transform="matrix(1 0 0 1 -69.76 -41.14)" fill="rgb(255,224,0)" stroke="none" stroke-width="1"/><path id="eypgYMc9kiH83" d="M168.55,166.84C167.31,162.99,167.82,163.5,163.97,162.27C163.12,161.99,163.12,161.33,163.97,161.05C167.82,159.81,167.31,160.32,168.55,156.47C168.82,155.62,169.49,155.62,169.76,156.47C171,160.32,170.49,159.81,174.34,161.05C175.19,161.33,175.19,161.99,174.34,162.27C170.49,163.5,171,162.99,169.76,166.84C169.49,167.7,168.82,167.7,168.55,166.84Z" transform="matrix(1 0 0 1 -69.76 -41.14)" fill="rgb(255,224,0)" stroke="none" stroke-width="1"/><path id="eypgYMc9kiH84" d="M115.34,56.41C114.1,52.56,114.61,53.07,110.76,51.83C109.91,51.55,109.91,50.89,110.76,50.61C114.61,49.38,114.1,49.89,115.34,46.04C115.62,45.18,116.28,45.18,116.56,46.04C117.79,49.89,117.28,49.38,121.13,50.61C121.99,50.89,121.99,51.55,121.13,51.83C117.28,53.07,117.79,52.56,116.56,56.41C116.28,57.26,115.62,57.26,115.34,56.41Z" transform="matrix(1 0 0 1 -69.76 -41.14)" fill="rgb(255,224,0)" stroke="none" stroke-width="1"/><path id="eypgYMc9kiH85" d="M175.51,95.91C174.51,92.74,174.91,93.16,171.75,92.14C171.04,91.92,171.04,91.37,171.75,91.14C174.91,90.14,174.49,90.54,175.51,87.37C175.74,86.67,176.29,86.67,176.51,87.37C177.51,90.54,177.11,90.12,180.28,91.14C180.98,91.37,180.98,91.92,180.28,92.14C177.11,93.14,177.53,92.74,176.51,95.91C176.29,96.61,175.74,96.61,175.51,95.91Z" transform="matrix(1 0 0 1 -69.76 -41.14)" fill="rgb(255,224,0)" stroke="none" stroke-width="1"/><path id="eypgYMc9kiH86" d="M77.54,130.16C76.54,126.99,76.94,127.41,73.77,126.39C73.07,126.16,73.07,125.61,73.77,125.39C76.94,124.39,76.52,124.79,77.54,121.62C77.77,120.92,78.32,120.92,78.54,121.62C79.54,124.79,79.14,124.37,82.31,125.39C83.01,125.61,83.01,126.16,82.31,126.39C79.14,127.39,79.56,126.99,78.54,130.16C78.32,130.86,77.77,130.86,77.54,130.16Z" transform="matrix(1 0 0 1 -69.76 -41.14)" fill="rgb(255,224,0)" stroke="none" stroke-width="1"/><path id="eypgYMc9kiH87" d="M116.43,96.6C115.49,93.69,115.88,94.07,112.96,93.14C112.32,92.93,112.32,92.42,112.96,92.22C115.88,91.28,115.49,91.66,116.43,88.75C116.64,88.1,117.14,88.1,117.35,88.75C118.29,91.66,117.9,91.28,120.82,92.22C121.46,92.42,121.46,92.93,120.82,93.14C117.9,94.07,118.29,93.69,117.35,96.6C117.14,97.25,116.64,97.25,116.43,96.6Z" transform="matrix(1 0 0 1 -69.76 -41.14)" fill="rgb(255,224,0)" stroke="none" stroke-width="1"/><g id="eypgYMc9kiH88_ts" transform="translate(125.59,17.36) scale(1,1)"><path id="eypgYMc9kiH88" d="M192.65,62.43C191.71,59.51,192.09,59.9,189.18,58.96C188.53,58.75,188.53,58.25,189.18,58.04C192.09,57.1,191.71,57.49,192.65,54.57C192.85,53.93,193.36,53.93,193.57,54.57C194.5,57.49,194.12,57.1,197.03,58.04C197.68,58.25,197.68,58.75,197.03,58.96C194.12,59.9,194.5,59.51,193.57,62.43C193.36,63.07,192.85,63.07,192.65,62.43Z" transform="translate(-195.349989,-58.499997)" fill="rgb(255,224,0)" stroke="none" stroke-width="1"/></g></g></svg>