<?xml version="1.0" standalone="no"?>
<svg xmlns:xlink="http://www.w3.org/1999/xlink" id="wave" style="transform:rotate(180deg); transition: 0.3s" viewBox="0 0 1440 130" version="1.1" xmlns="http://www.w3.org/2000/svg"><defs><linearGradient id="sw-gradient-0" x1="0" x2="0" y1="1" y2="0"><stop stop-color="rgba(244, 244, 244, 1)" offset="0%"/><stop stop-color="rgba(244, 244, 244, 1)" offset="100%"/></linearGradient></defs><path style="transform:translate(0, 0px); opacity:1" fill="url(#sw-gradient-0)" d="M0,52L24,47.7C48,43,96,35,144,36.8C192,39,240,52,288,67.2C336,82,384,100,432,106.2C480,113,528,108,576,97.5C624,87,672,69,720,60.7C768,52,816,52,864,45.5C912,39,960,26,1008,28.2C1056,30,1104,48,1152,45.5C1200,43,1248,22,1296,10.8C1344,0,1392,0,1440,19.5C1488,39,1536,78,1584,84.5C1632,91,1680,65,1728,62.8C1776,61,1824,82,1872,93.2C1920,104,1968,104,2016,95.3C2064,87,2112,69,2160,54.2C2208,39,2256,26,2304,26C2352,26,2400,39,2448,52C2496,65,2544,78,2592,69.3C2640,61,2688,30,2736,21.7C2784,13,2832,26,2880,30.3C2928,35,2976,30,3024,39C3072,48,3120,69,3168,84.5C3216,100,3264,108,3312,112.7C3360,117,3408,117,3432,117L3456,117L3456,130L3432,130C3408,130,3360,130,3312,130C3264,130,3216,130,3168,130C3120,130,3072,130,3024,130C2976,130,2928,130,2880,130C2832,130,2784,130,2736,130C2688,130,2640,130,2592,130C2544,130,2496,130,2448,130C2400,130,2352,130,2304,130C2256,130,2208,130,2160,130C2112,130,2064,130,2016,130C1968,130,1920,130,1872,130C1824,130,1776,130,1728,130C1680,130,1632,130,1584,130C1536,130,1488,130,1440,130C1392,130,1344,130,1296,130C1248,130,1200,130,1152,130C1104,130,1056,130,1008,130C960,130,912,130,864,130C816,130,768,130,720,130C672,130,624,130,576,130C528,130,480,130,432,130C384,130,336,130,288,130C240,130,192,130,144,130C96,130,48,130,24,130L0,130Z"/></svg>